<?xml version="1.0" encoding="UTF-8"?>
<!-- Created with Inkscape (http://www.inkscape.org/) -->
<svg width="100" height="100" version="1.1" viewBox="0 0 26.458333 26.458334" xmlns="http://www.w3.org/2000/svg" xmlns:cc="http://creativecommons.org/ns#" xmlns:dc="http://purl.org/dc/elements/1.1/" xmlns:rdf="http://www.w3.org/1999/02/22-rdf-syntax-ns#" xmlns:xlink="http://www.w3.org/1999/xlink">
 <metadata>
  <rdf:RDF>
   <cc:Work rdf:about="">
    <dc:format>image/svg+xml</dc:format>
    <dc:type rdf:resource="http://purl.org/dc/dcmitype/StillImage"/>
    <dc:title/>
   </cc:Work>
  </rdf:RDF>
 </metadata>
 <g transform="translate(0 -270.54)">
  <rect x="-1.4211e-14" y="270.54" width="26.458" height="26.458" fill="#294172" stroke-width=".27763"/>
  <path id="voice" d="m23.812 283.77c0-5.8451-4.7384-10.584-10.583-10.584-5.8425 0-10.579 4.7346-10.583 10.576v8.19c0.00312 1.3264 1.0789 2.4001 2.4061 2.4001h8.1813c5.8431-2e-3 10.579-4.7391 10.579-10.583" fill="#ffffff" stroke-width=".079499"/>
  <path id="in" d="m8.7475 284.45h3.8036v3.8036c0 2.0996-1.704 3.8036-3.8036 3.8036-2.0996 0-3.8036-1.704-3.8036-3.8036 0-2.0996 1.704-3.8036 3.8036-3.8036z" fill="none" stroke="#3c6eb4" stroke-width="2.3222"/>
  <use id="finity" transform="rotate(180 12.542 284.46)" width="100%" height="100%" xlink:href="#in"/>
  <path id="free" d="m13.715 283.3v4.9564c0 2.743-2.224 4.9671-4.9671 4.9671-0.41617 0-0.71203-0.047-1.0973-0.14769-0.56173-0.147-1.0208-0.60757-1.021-1.1433 0-0.64753 0.47003-1.1185 1.1726-1.1185 0.3344 0 0.45574 0.0642 0.94563 0.0642 1.4462 0 2.6193-1.1714 2.6218-2.6176v-2.2782c0-0.20413-0.16588-0.36953-0.37036-0.36953l-1.7224-3.1e-4c-0.64172 0-1.1602-0.51185-1.1602-1.1553-3.424e-4 -0.64749 0.5238-1.1572 1.1725-1.1572" fill="#294172" stroke-width=".079499"/>
  <use id="dom" transform="rotate(180 12.542 284.46)" width="100%" height="100%" xlink:href="#free"/>
 </g>
</svg>
