<?xml version="1.0" encoding="UTF-8"?>
<!-- Created with Inkscape (http://www.inkscape.org/) -->
<svg width="100" height="100" version="1.1" viewBox="0 0 26.458333 26.458334" xmlns="http://www.w3.org/2000/svg" xmlns:cc="http://creativecommons.org/ns#" xmlns:dc="http://purl.org/dc/elements/1.1/" xmlns:rdf="http://www.w3.org/1999/02/22-rdf-syntax-ns#">
 <metadata>
  <rdf:RDF>
   <cc:Work rdf:about="">
    <dc:format>image/svg+xml</dc:format>
    <dc:type rdf:resource="http://purl.org/dc/dcmitype/StillImage"/>
    <dc:title/>
   </cc:Work>
  </rdf:RDF>
 </metadata>
 <g transform="translate(0 -270.54)">
  <rect x="-1.4211e-14" y="270.54" width="26.458" height="26.458" fill="#52b043" stroke-width=".27763"/>
  <path d="m7.1343 290.74c1.6275 1.4261 3.7621 2.2896 6.0949 2.2896 2.3352 0 4.4674-0.86354 6.098-2.2896 1.4485-1.4755-3.3307-6.7208-6.098-8.8106-2.7642 2.0898-7.5465 7.3351-6.0949 8.8106zm8.6122-11.117c1.9293 2.285 5.7754 7.9586 4.6889 9.9642 1.2841-1.5889 2.0543-3.61 2.0543-5.8148 0-2.5775-1.0534-4.9096-2.755-6.5873 0 0-0.02071-0.0175-0.06329-0.0324-0.04862-0.0175-0.11731-0.0347-0.21685-0.0347-0.45685 0-1.5318 0.33492-3.708 2.5049zm-8.9579-2.4702c-0.04399 0.0146-0.06328 0.0318-0.06637 0.0324-1.7001 1.6777-2.7534 4.0098-2.7534 6.5873 0 2.2024 0.77016 4.2235 2.0535 5.8132-1.0812-2.0103 2.7619-7.6792 4.692-9.9627-2.1762-2.1708-3.2535-2.5042-3.7088-2.5042-0.10109 0-0.17209 0.0175-0.21685 0.0356zm6.4406 0.0965s-2.2727-1.3296-4.0476-1.393c-0.69685-0.0263-1.1221 0.2278-1.1738 0.26163 1.6553-1.1105 3.4148-1.609 5.209-1.609h0.01225c1.8012 0 3.5537 0.49851 5.2213 1.609-0.05247-0.0356-0.4746-0.287-1.173-0.26163-1.7749 0.0633-4.0484 1.3883-4.0484 1.3883z" fill="#ffffff" stroke-width=".7717"/>
 </g>
</svg>
